<?xml version="1.0" encoding="UTF-8" standalone="no"?>
<svg
   xmlns:dc="http://purl.org/dc/elements/1.1/"
   xmlns:cc="http://creativecommons.org/ns#"
   xmlns:rdf="http://www.w3.org/1999/02/22-rdf-syntax-ns#"
   xmlns:svg="http://www.w3.org/2000/svg"
   xmlns="http://www.w3.org/2000/svg"
   xmlns:xlink="http://www.w3.org/1999/xlink"
   xmlns:sodipodi="http://sodipodi.sourceforge.net/DTD/sodipodi-0.dtd"
   xmlns:inkscape="http://www.inkscape.org/namespaces/inkscape"
   id="svg3682"
   version="1.1"
   width="{{ width }}"
   viewBox="0 0 15 21.24595"
   height="{{ height }}"
   sodipodi:docname="SAE_camion.svg"
   inkscape:version="0.92.1 r15371">
  <sodipodi:namedview
     pagecolor="#ffffff"
     bordercolor="#666666"
     borderopacity="1"
     objecttolerance="10"
     gridtolerance="10"
     guidetolerance="10"
     inkscape:pageopacity="0"
     inkscape:pageshadow="2"
     inkscape:window-width="1366"
     inkscape:window-height="705"
     id="namedview15"
     showgrid="false"
     inkscape:zoom="5.6190476"
     inkscape:cx="33.335157"
     inkscape:cy="13.290055"
     inkscape:window-x="-8"
     inkscape:window-y="-8"
     inkscape:window-maximized="1"
     inkscape:current-layer="svg3682" />
  <metadata
     id="metadata3688">
    <rdf:RDF>
      <cc:Work
         rdf:about="">
        <dc:format>image/svg xml</dc:format>
        <dc:type
           rdf:resource="http://purl.org/dc/dcmitype/StillImage" />
        <dc:title></dc:title>
      </cc:Work>
    </rdf:RDF>
  </metadata>
  <defs
     id="defs3686">
    <linearGradient
       id="linearGradient4509">
      <stop
         id="stop4505"
         offset="0"
         style="stop-color:{{ colorDark }};stop-opacity:1;"/>
      <stop
         id="stop4507"
         offset="1"
         style="stop-color:{{ colorDark }};stop-opacity:1"/>
    </linearGradient>
    <linearGradient
       id="linearGradient4499">
      <stop
         id="stop4495"
         offset="0"
         style="stop-color:{{ colorLight }};stop-opacity:1"/>
      <stop
         id="stop4497"
         offset="1"
         style="stop-color:{{ color }};stop-opacity:1"/>
    </linearGradient>
    <radialGradient
       gradientUnits="userSpaceOnUse"
       gradientTransform="matrix(0.82939196,0.01135527,-0.01194022,0.87211824,-2.3795616,-2.2401053)"
       r="7.5"
       fy="6.9949503"
       fx="11.958529"
       cy="6.9949503"
       cx="11.958529"
       id="radialGradient4503"
       xlink:href="#linearGradient4499" />
    <radialGradient
       gradientTransform="translate(-4.5,-1.5)"
       gradientUnits="userSpaceOnUse"
       r="2.7452838"
       fy="9.0127163"
       fx="12"
       cy="9.0127163"
       cx="12"
       id="radialGradient4511"
       xlink:href="#linearGradient4509" />
  </defs>
  <path
     style="fill:url(#radialGradient4503);fill-opacity:1;stroke:{{ colorStroke }};stroke-opacity:1"
     id="svg_1"
     d="m 7.5,0.5 c -3.8699999,0 -7,3.1300001 -7,7 0,5.25 7,13 7,13 0,0 7,-7.75 7,-13 0,-3.8699999 -3.13,-7 -7,-7 z"
     inkscape:connector-curvature="0"
     sodipodi:nodetypes="sscss" />
  <g
     transform="matrix(0.01731125,0,0,0.01731125,2.1748512,2.4449193)"
     id="g4">
    <path
       style="fill:{{ colorIcon }};stroke-width:0.0342217"
       d="M 13.302734 7.4296875 C 12.815816 7.4811586 12.403694 7.9914141 12.457031 8.6308594 C 12.691662 11.443804 13.214844 15.394531 13.214844 15.394531 L 15.171875 15.349609 C 15.171875 15.349609 14.874441 11.667871 14.503906 8.5429688 C 14.433187 7.9465569 13.845425 7.3723209 13.302734 7.4296875 z M 11.832031 8.1894531 C 11.832031 8.1894531 6.7879617 11.136484 5.0117188 12.398438 C 4.6904928 12.626656 4.0541278 13.214831 4.28125 13.636719 C 4.4861043 14.017243 5.1940486 13.877089 5.5761719 13.701172 C 8.7993764 12.217317 12.013672 10.726563 12.013672 10.726562 C 11.855917 9.8378654 11.754441 9.0370482 11.832031 8.1894531 z M 17.185547 9.7988281 C 16.855444 9.7988281 16.587891 10.068335 16.587891 10.398438 L 16.587891 18.945312 L 11.96875 18.945312 C 12.40648 19.32288 12.707691 19.850921 12.794922 20.449219 L 17.667969 20.449219 C 17.841028 19.262342 18.8616 18.347656 20.095703 18.347656 C 21.329566 18.347656 22.352331 19.262308 22.525391 20.449219 L 24.943359 20.449219 C 25.108411 20.449219 25.242188 20.315442 25.242188 20.150391 L 25.242188 19.244141 C 25.242187 19.079089 25.108411 18.945312 24.943359 18.945312 L 24.216797 18.945312 L 24.216797 14.884766 C 24.216797 14.407955 24.073433 13.942033 23.806641 13.546875 L 21.988281 10.853516 C 21.543776 10.195124 20.802235 9.7988281 20.007812 9.7988281 L 17.185547 9.7988281 z M 18.244141 11.421875 L 20.511719 11.421875 C 20.608977 11.421875 20.699873 11.469297 20.755859 11.548828 L 22.210938 13.615234 C 22.350288 13.813241 22.208881 14.085938 21.966797 14.085938 L 18.244141 14.085938 C 18.079089 14.085937 17.945312 13.952195 17.945312 13.787109 L 17.945312 11.720703 C 17.945312 11.555652 18.079124 11.421875 18.244141 11.421875 z M 3.9316406 15.945312 C 3.4364526 15.945313 3.0351562 16.346643 3.0351562 16.841797 L 3.0351562 17.751953 C 3.0351562 17.917039 3.1688989 18.050781 3.3339844 18.050781 L 15.435547 18.050781 C 15.600632 18.050781 15.734375 17.917004 15.734375 17.751953 L 15.734375 16.841797 C 15.734375 16.346643 15.333044 15.945312 14.837891 15.945312 L 3.9316406 15.945312 z M 4.5976562 18.945312 C 4.432605 18.945312 4.2988281 19.079089 4.2988281 19.244141 L 4.2988281 20.150391 C 4.2988281 20.315442 4.432605 20.449219 4.5976562 20.449219 L 7.9375 20.449219 C 8.0246969 19.850887 8.3278953 19.32288 8.765625 18.945312 L 4.5976562 18.945312 z M 10.367188 18.945312 C 9.3402285 18.945312 8.5078125 19.77766 8.5078125 20.804688 C 8.5078125 21.831681 9.3402285 22.664062 10.367188 22.664062 C 11.394146 22.664062 12.226562 21.831681 12.226562 20.804688 C 12.226563 19.77766 11.394146 18.945312 10.367188 18.945312 z M 20.095703 18.945312 C 19.06871 18.945312 18.236328 19.77766 18.236328 20.804688 C 18.236328 21.831681 19.06871 22.664062 20.095703 22.664062 C 21.122662 22.664062 21.955078 21.831681 21.955078 20.804688 C 21.955078 19.77766 21.122662 18.945278 20.095703 18.945312 z M 10.367188 19.875 C 10.880684 19.875 11.296875 20.291191 11.296875 20.804688 C 11.296875 21.318184 10.880684 21.734375 10.367188 21.734375 C 9.8536909 21.734375 9.4375 21.318184 9.4375 20.804688 C 9.4375 20.291191 9.8536909 19.875 10.367188 19.875 z M 20.095703 19.875 C 20.6092 19.875 21.025391 20.291191 21.025391 20.804688 C 21.025391 21.318184 20.6092 21.734375 20.095703 21.734375 C 19.582207 21.734375 19.166016 21.318184 19.166016 20.804688 C 19.166016 20.291191 19.582172 19.875 20.095703 19.875 z "
       transform="matrix(29.221226,0,0,29.221226,-125.63224,-141.23297)"
       id="path2" />
  </g>
</svg>
